<svg width="24" height="24" viewBox="0 0 24 24" fill="none" xmlns="http://www.w3.org/2000/svg">
<path d="M8.22106 6.46515C7.59899 7.08921 7.10849 7.83175 6.7786 8.64881C6.44871 9.46587 6.28614 10.3408 6.30053 11.2218C6.31492 12.1029 6.50597 12.972 6.86237 13.7779C7.21877 14.5837 7.73326 15.3099 8.37538 15.9133C9.01749 16.5167 9.77418 16.9851 10.6006 17.2907C11.427 17.5964 12.3064 17.7331 13.1866 17.6928C14.0668 17.6524 14.93 17.4358 15.725 17.0558C16.52 16.6758 17.2306 16.1401 17.8148 15.4805C16.5313 15.7962 15.188 15.7754 13.9148 15.4201C12.6416 15.0648 11.4816 14.387 10.547 13.4522C9.6124 12.5175 8.93476 11.3575 8.57959 10.0842C8.22443 8.81103 8.20377 7.46772 8.5196 6.18418C8.41724 6.27477 8.31768 6.36847 8.22106 6.46515ZM11.3261 12.6741C12.5109 13.8589 14.1028 14.5476 15.7775 14.5998C17.4523 14.652 19.084 14.0638 20.3403 12.955C20.0148 14.2776 19.3437 15.4898 18.3955 16.4675C17.4473 17.4453 16.2563 18.1534 14.9444 18.5194C13.6325 18.8854 12.2469 18.896 10.9296 18.5502C9.6122 18.2045 8.41043 17.5147 7.44736 16.5517C6.48429 15.5886 5.79455 14.3868 5.44878 13.0695C5.10302 11.7521 5.11367 10.3665 5.47963 9.0546C5.8456 7.7427 6.55373 6.55168 7.53148 5.60352C8.50924 4.65537 9.72147 3.98417 11.044 3.65869C9.93505 4.91519 9.34687 6.5472 9.39928 8.22225C9.45169 9.89729 10.1407 11.4893 11.3261 12.6741Z" fill="#CCCCCC"/>
<circle cx="12" cy="12" r="11.5" stroke="#D9D9D9"/>
</svg>
